<?xml version="1.0" standalone="no"?>
<!DOCTYPE svg PUBLIC "-//W3C//DTD SVG 20010904//EN"
 "http://www.w3.org/TR/2001/REC-SVG-20010904/DTD/svg10.dtd">
<svg version="1.0" xmlns="http://www.w3.org/2000/svg"
 width="524.000000pt" height="524.000000pt" viewBox="0 0 524.000000 524.000000"
 preserveAspectRatio="xMidYMid meet">

<g transform="translate(0.000000,524.000000) scale(0.100000,-0.100000)"
fill="#000000" stroke="none">
<path d="M472 5129 c2 -7 10 -15 17 -17 8 -3 12 1 9 9 -2 7 -10 15 -17 17 -8
3 -12 -1 -9 -9z"/>
<path d="M490 5100 c-1 -3 -4 -75 -6 -160 -1 -85 -6 -170 -9 -187 -6 -34 9
-47 19 -15 5 15 18 230 17 257 -2 25 -19 109 -21 105z"/>
<path d="M2886 5088 c-8 -24 -8 -307 0 -319 8 -14 -21 -91 -38 -100 -18 -9
-25 -39 -10 -39 20 1 92 130 72 130 -5 0 -8 68 -6 165 1 92 -1 168 -6 171 -4
3 -10 -1 -12 -8z"/>
<path d="M1105 4655 c-26 -11 -27 -13 -8 -14 27 -1 53 9 53 20 0 12 -9 11 -45
-6z"/>
<path d="M1455 4660 c-3 -5 -12 -7 -19 -4 -8 3 -17 1 -21 -5 -4 -7 7 -11 29
-11 25 0 36 4 36 15 0 17 -16 20 -25 5z"/>
<path d="M4540 4663 c-50 -4 -96 -22 -59 -24 7 0 36 -2 63 -4 47 -4 76 6 76
26 0 5 -6 8 -12 7 -7 -1 -38 -3 -68 -5z"/>
<path d="M0 4646 c0 -7 18 -11 48 -10 75 1 92 3 92 12 0 4 -32 8 -70 8 -47 1
-70 -2 -70 -10z"/>
<path d="M170 4648 l-25 -11 23 -5 c30 -5 55 5 47 18 -8 12 -13 12 -45 -2z"/>
<path d="M275 4650 c-3 -5 1 -10 10 -10 9 0 13 5 10 10 -3 6 -8 10 -10 10 -2
0 -7 -4 -10 -10z"/>
<path d="M310 4650 c0 -5 12 -10 28 -9 24 0 25 1 7 9 -27 12 -35 12 -35 0z"/>
<path d="M670 4650 c-11 -7 -3 -10 30 -10 25 0 52 5 60 10 11 7 3 10 -30 10
-25 0 -52 -5 -60 -10z"/>
<path d="M1510 4650 c0 -5 19 -10 42 -10 49 0 47 5 -4 14 -24 4 -38 3 -38 -4z"/>
<path d="M2472 4644 c-32 -9 -24 -10 53 -7 114 6 126 9 47 14 -35 2 -80 -1
-100 -7z"/>
<path d="M3283 4653 c-23 -9 -14 -20 12 -15 14 2 22 8 19 13 -6 10 -12 10 -31
2z"/>
<path d="M3415 4650 c-3 -5 -1 -10 4 -10 6 0 11 5 11 10 0 6 -2 10 -4 10 -3 0
-8 -4 -11 -10z"/>
<path d="M4178 4653 c-86 -2 -138 -7 -138 -14 0 -12 270 -1 285 12 6 6 6 8 0
7 -6 -1 -72 -4 -147 -5z"/>
<path d="M4420 4650 c-12 -8 -11 -10 7 -10 12 0 25 5 28 10 8 13 -15 13 -35 0z"/>
<path d="M878 4643 c7 -3 16 -2 19 1 4 3 -2 6 -13 5 -11 0 -14 -3 -6 -6z"/>
<path d="M1618 4643 c12 -2 30 -2 40 0 9 3 -1 5 -23 4 -22 0 -30 -2 -17 -4z"/>
<path d="M1925 4639 c25 -10 136 -11 151 -1 7 4 -29 8 -80 8 -54 1 -83 -2 -71
-7z"/>
<path d="M2135 4640 c-4 -6 5 -10 19 -10 14 0 26 5 26 10 0 6 -9 10 -19 10
-11 0 -23 -4 -26 -10z"/>
<path d="M2203 4637 c-4 -6 4 -8 21 -5 14 3 26 1 26 -4 0 -6 8 -7 18 -2 9 4
42 10 72 14 48 6 43 7 -38 7 -51 0 -95 -4 -99 -10z"/>
<path d="M3214 4643 c10 -10 46 -11 46 -1 0 4 -12 8 -27 8 -14 0 -23 -3 -19
-7z"/>
<path d="M4673 4640 c16 -5 38 -5 50 0 17 7 10 9 -28 9 -43 -1 -46 -2 -22 -9z"/>
<path d="M4780 4640 c-32 -10 -28 -12 45 -16 33 -1 78 -5 100 -8 22 -3 98 -5
168 -5 83 -1 126 -5 122 -11 -3 -5 0 -10 7 -10 8 0 15 11 16 24 1 19 -3 24
-21 23 -12 0 -110 2 -217 6 -107 3 -206 2 -220 -3z"/>
<path d="M4860 4415 c-1 -38 -1 -896 0 -1906 1 -1687 0 -1837 -15 -1843 -9 -3
-1020 -6 -2247 -6 l-2230 0 31 -39 c17 -21 31 -48 31 -59 0 -15 5 -19 20 -15
14 4 20 0 20 -11 0 -9 4 -16 10 -16 5 0 18 -10 30 -22 24 -27 14 -35 -51 -43
-77 -10 -64 -15 46 -20 40 -2 75 -14 75 -26 0 -5 6 -9 14 -9 8 0 16 -7 20 -15
3 -8 16 -15 30 -15 40 0 56 -11 57 -39 1 -24 2 -24 7 -4 l7 22 49 -24 c47 -22
73 -25 61 -5 -3 5 -1 11 5 15 5 3 10 -1 10 -9 0 -18 16 -21 25 -6 3 5 22 7 41
4 30 -5 38 -1 57 22 l22 28 5 -29 c5 -28 7 -30 45 -25 22 2 66 4 98 3 45 -1
57 2 57 14 0 8 6 13 13 10 6 -2 11 -9 10 -15 -2 -6 12 -13 30 -16 44 -7 169
-2 184 7 6 4 14 3 18 -3 8 -13 65 -13 65 -1 0 6 12 6 30 -1 20 -7 48 -7 88 0
34 6 64 6 74 1 9 -5 58 -9 108 -9 80 0 91 2 86 16 -4 10 -2 14 6 11 7 -2 12
-10 11 -16 -4 -16 12 -14 27 4 7 8 17 15 22 15 6 0 5 -7 -2 -15 -10 -12 -10
-15 1 -16 26 -2 44 3 51 14 6 9 13 9 28 0 24 -16 56 -17 65 -3 4 7 14 6 28 -2
22 -11 313 -21 331 -10 14 8 96 7 96 -1 0 -5 6 -5 13 0 17 11 97 12 97 2 0
-11 45 -9 88 3 27 8 37 7 53 -8 15 -14 17 -20 7 -27 -9 -6 -8 -7 4 -3 26 8 39
-25 37 -96 -2 -50 -6 -66 -23 -79 -12 -10 -17 -21 -13 -25 4 -5 12 -2 17 6 12
20 18 11 23 -33 4 -45 12 -55 25 -30 14 27 23 85 13 78 -14 -8 -24 14 -13 28
5 7 12 34 16 61 3 28 13 54 23 61 13 10 11 11 -18 8 -29 -3 -31 -2 -11 7 25
11 29 25 7 34 -8 3 -15 10 -15 16 0 16 31 12 52 -7 10 -9 21 -13 26 -8 4 4 1
10 -5 12 -21 8 -15 18 12 19 19 2 25 -3 25 -20 0 -14 3 -17 8 -8 6 9 36 12
110 9 56 -2 105 0 110 5 9 9 33 10 107 4 37 -2 53 1 62 13 11 14 12 14 13 -2
0 -11 4 -15 12 -11 6 4 106 6 222 5 116 -2 244 -4 284 -4 70 -1 72 -1 73 -26
l1 -26 7 25 c7 24 10 25 75 23 38 -2 74 -7 80 -12 14 -12 114 -5 131 9 6 5 52
9 103 7 68 -1 92 1 92 11 0 6 5 12 10 12 6 0 10 -6 10 -14 0 -8 7 -17 16 -20
23 -9 24 -8 24 16 0 17 3 19 12 10 15 -15 78 -16 78 0 0 6 9 3 21 -8 12 -10
24 -18 28 -16 3 2 9 -7 13 -20 5 -21 6 -20 7 7 l1 30 75 -2 c45 -2 74 1 70 7
-3 5 7 3 22 -5 36 -19 64 -19 89 0 17 13 17 14 2 15 -28 0 -21 19 9 26 33 9
53 27 53 49 0 9 4 14 9 11 5 -3 7 -15 4 -26 -6 -24 9 -26 27 -5 7 8 23 15 35
15 12 0 28 7 35 15 15 18 45 21 34 3 -4 -6 4 -3 19 8 25 19 32 52 12 66 -6 5
-6 8 1 8 7 0 14 7 18 15 3 9 0 15 -9 15 -7 0 -16 -13 -20 -30 -3 -16 -14 -31
-23 -34 -25 -8 -162 -10 -169 -2 -4 3 1 7 10 7 10 1 22 3 27 4 6 1 18 4 28 5
12 1 10 4 -8 10 -14 5 -18 8 -9 9 12 1 19 16 25 59 9 54 10 57 37 54 15 -1 27
2 27 8 0 9 -14 14 -32 11 -13 -2 -9 17 7 32 12 13 12 15 -5 20 -13 3 -20 0
-20 -9 0 -8 -4 -14 -10 -14 -5 0 -10 9 -10 20 0 14 9 21 35 26 38 7 58 24 28
24 -24 0 -49 17 -40 27 5 4 12 1 17 -7 7 -11 10 -7 10 17 0 17 -6 34 -12 36
-10 4 -9 8 2 16 10 7 11 11 3 11 -7 0 -13 5 -13 11 0 5 5 7 10 4 6 -3 10 1 10
9 0 9 9 16 20 16 15 0 20 7 20 25 0 19 -5 25 -22 25 -20 0 -20 1 -5 13 9 6 18
25 20 40 4 35 22 47 60 40 27 -6 29 -5 18 16 -8 14 -8 21 -1 21 17 0 12 106
-6 121 -9 7 -20 22 -24 34 -8 19 -9 19 -9 -2 -1 -18 -7 -23 -28 -23 -25 1 -26
2 -10 14 24 18 21 29 -5 21 -13 -4 -18 -3 -12 2 22 15 21 83 0 83 -20 0 -29
17 -15 26 8 5 9 3 4 -6 -6 -10 -4 -12 9 -7 10 4 19 7 22 7 2 0 -1 11 -6 25 -8
20 -6 27 5 31 8 4 15 11 15 16 0 6 -7 8 -15 5 -29 -12 -24 12 7 38 l33 27 -40
-6 c-35 -5 -37 -4 -17 6 15 7 20 17 17 29 -4 10 1 21 10 26 13 8 10 13 -20 28
-19 11 -35 25 -35 31 0 7 -6 15 -12 18 -7 4 -3 4 10 2 23 -4 27 7 22 61 -1 22
28 45 53 42 29 -4 57 2 57 11 0 6 -12 10 -27 11 -28 0 -28 1 -5 11 27 13 28
24 5 37 -16 9 -15 10 5 11 21 0 23 4 20 38 -3 39 -2 38 -70 41 -21 1 -25 5
-21 20 3 13 -2 21 -16 26 -23 7 -27 20 -11 30 14 8 13 35 -1 35 -6 0 -8 -7 -4
-17 4 -13 3 -15 -5 -7 -18 18 -1 63 27 70 15 4 22 12 19 20 -3 9 2 14 14 14
11 0 20 5 20 11 0 7 -8 9 -22 4 -51 -15 -68 -17 -68 -6 0 6 11 16 25 21 33 12
35 50 3 50 -22 1 -23 1 -3 13 11 6 23 12 28 12 4 0 7 3 7 8 0 4 0 14 0 23 0
12 -7 15 -25 11 -24 -4 -24 -3 -10 13 8 9 15 24 15 33 0 9 6 17 13 18 6 0 -1
7 -18 14 -26 12 -27 14 -8 15 25 0 39 15 22 25 -5 4 -8 13 -5 20 2 7 -4 15
-15 18 -11 3 -19 14 -19 26 0 16 6 21 28 21 25 0 69 19 47 20 -5 1 5 7 23 15
32 14 42 39 20 49 -10 5 -10 7 0 12 6 3 12 17 12 30 0 14 -4 22 -10 19 -15 -9
-101 6 -94 16 3 5 -2 9 -10 9 -10 0 -16 9 -16 23 0 12 -7 33 -16 45 -13 19
-13 22 0 22 8 0 18 4 21 10 4 6 -1 7 -12 3 -16 -6 -17 -5 -3 13 8 10 19 22 24
26 27 19 1 58 -27 41 -9 -5 -9 -3 -1 8 7 8 11 26 9 41 -2 18 3 31 13 37 13 8
14 12 3 25 -7 9 -11 22 -8 30 3 8 2 16 -3 18 -6 2 -12 27 -15 56 -3 30 -7 58
-10 62 -3 5 -1 11 5 15 7 4 7 12 0 26 -9 17 -7 19 17 20 15 1 38 0 51 -1 25
-2 30 15 7 24 -8 3 -15 10 -15 17 0 6 7 8 16 5 10 -4 18 1 21 13 3 11 15 21
27 23 16 2 22 11 24 41 3 34 1 37 -22 37 -27 0 -95 30 -96 43 0 4 9 7 19 7 11
0 23 5 26 10 3 6 0 10 -8 10 -18 0 -32 30 -14 30 7 0 0 8 -15 18 -16 9 -28 23
-28 32 1 12 3 12 14 -2 7 -10 25 -18 40 -18 23 0 26 4 26 35 l0 35 -21 -21
c-27 -27 -39 -15 -42 39 -1 23 -5 42 -9 42 -4 0 -8 7 -8 15 0 8 8 15 18 15 14
0 15 2 2 10 -12 8 -11 13 8 33 32 34 26 67 -6 35 -9 -9 -12 -7 -12 9 0 12 -7
28 -15 37 -20 19 -19 33 3 39 12 3 10 5 -7 6 -19 1 -21 4 -11 16 13 16 6 35
-14 35 -15 0 -17 29 -2 32 13 2 98 6 144 7 22 1 32 6 32 17 0 11 -5 14 -17 9
-21 -8 -21 -8 -55 -6 -16 0 -28 6 -28 12 0 6 6 9 14 6 20 -8 27 3 16 24 -14
24 7 37 24 14 7 -10 20 -15 32 -12 17 4 16 5 -3 6 -28 1 -30 17 -3 26 13 4 20
15 20 31 0 23 -3 24 -65 24 -38 0 -65 4 -65 10 0 6 -6 10 -12 9 -32 -4 -41 1
-28 16 6 8 9 19 5 25 -4 6 -1 18 6 26 6 8 9 17 5 21 -3 3 -6 1 -6 -5 0 -7 -6
-12 -14 -12 -21 0 -15 64 7 68 12 2 16 11 13 30 -5 42 -17 64 -32 58 -9 -3
-16 5 -20 22 -4 15 -16 39 -26 54 -11 16 -17 32 -14 37 3 5 -1 12 -10 15 -8 3
-12 10 -9 16 3 6 -1 13 -9 16 -9 3 -16 15 -16 26 0 12 -10 23 -28 29 -15 5
-35 22 -45 37 -16 27 -16 27 -17 -43z m313 -1937 c4 -10 8 -10 15 1 11 16 47
7 37 -9 -11 -18 -75 -9 -75 11 0 13 18 11 23 -3z m-58 -128 c3 -6 -1 -7 -9 -4
-18 7 -21 14 -7 14 6 0 13 -4 16 -10z m5 -710 c0 -5 -5 -10 -11 -10 -5 0 -7 5
-4 10 3 6 8 10 11 10 2 0 4 -4 4 -10z m2 -262 c-7 -7 -12 -8 -12 -2 0 14 12
26 19 19 2 -3 -1 -11 -7 -17z m-3869 -999 c-8 -8 -16 -8 -30 1 -15 10 -15 11
-1 6 10 -3 20 -1 24 5 3 6 9 8 12 4 3 -3 1 -10 -5 -16z m-226 -26 c-3 -10 -5
-4 -5 12 0 17 2 24 5 18 2 -7 2 -21 0 -30z m323 33 c0 -3 -4 -8 -10 -11 -5 -3
-10 -1 -10 4 0 6 5 11 10 11 6 0 10 -2 10 -4z m-215 -16 c-3 -5 -11 -10 -16
-10 -6 0 -7 5 -4 10 3 6 11 10 16 10 6 0 7 -4 4 -10z m3742 -12 c-3 -8 -6 -5
-6 6 -1 11 2 17 5 13 3 -3 4 -12 1 -19z m-4007 -4 c0 -2 -9 -4 -21 -4 -11 0
-18 4 -14 10 5 8 35 3 35 -6z m300 6 c0 -5 -5 -10 -11 -10 -5 0 -7 5 -4 10 3
6 8 10 11 10 2 0 4 -4 4 -10z m137 -5 c8 -9 13 -19 10 -22 -6 -5 -37 21 -37
31 0 10 11 6 27 -9z m3538 5 c-3 -5 -10 -10 -16 -10 -5 0 -9 5 -9 10 0 6 7 10
16 10 8 0 12 -4 9 -10z m-2539 -27 c-10 -10 -19 5 -10 18 6 11 8 11 12 0 2 -7
1 -15 -2 -18z m-1026 -3 c0 -5 -2 -10 -4 -10 -3 0 -8 5 -11 10 -3 6 -1 10 4
10 6 0 11 -4 11 -10z m1617 -56 c-3 -3 -12 -4 -19 -1 -8 3 -5 6 6 6 11 1 17
-2 13 -5z m-7 -214 c0 -5 -5 -10 -11 -10 -5 0 -7 5 -4 10 3 6 8 10 11 10 2 0
4 -4 4 -10z"/>
<path d="M5010 4315 c0 -8 5 -15 10 -15 6 0 10 7 10 15 0 8 -4 15 -10 15 -5 0
-10 -7 -10 -15z"/>
<path d="M8 3963 c7 -3 16 -2 19 1 4 3 -2 6 -13 5 -11 0 -14 -3 -6 -6z"/>
<path d="M80 3960 c16 -10 107 -14 97 -4 -3 3 -30 8 -59 10 -37 3 -49 1 -38
-6z"/>
<path d="M200 3958 c0 -4 14 -8 30 -8 17 0 30 2 30 4 0 2 -13 6 -30 8 -16 3
-30 1 -30 -4z"/>
<path d="M980 3630 c-8 -5 -46 -19 -85 -31 -38 -12 -73 -27 -77 -33 -8 -13 9
-36 28 -36 7 0 20 -10 28 -22 14 -20 16 -84 16 -500 0 -442 1 -478 17 -478 9
0 27 10 40 21 22 22 23 22 85 4 104 -29 223 -32 299 -6 114 38 209 133 233
234 12 50 8 170 -8 221 -40 132 -159 226 -287 226 -55 0 -132 -27 -175 -61
l-39 -31 -3 251 -2 251 -28 0 c-15 0 -34 -5 -42 -10z m285 -509 c50 -23 78
-53 107 -116 19 -42 23 -67 23 -155 0 -94 -3 -110 -26 -155 -65 -124 -215
-146 -293 -42 -19 26 -21 43 -24 221 l-3 193 34 26 c61 47 121 56 182 28z"/>
<path d="M4136 3401 c-61 -62 -87 -94 -83 -105 9 -24 26 -20 134 28 118 54
137 75 107 127 -34 59 -57 52 -158 -50z"/>
<path d="M5190 3335 c0 -9 6 -12 15 -9 8 4 15 7 15 9 0 2 -7 5 -15 9 -9 3 -15
0 -15 -9z"/>
<path d="M1801 3199 c-35 -16 -84 -34 -108 -40 -52 -14 -56 -35 -9 -54 49 -21
56 -51 55 -254 0 -205 -9 -243 -54 -251 -21 -4 -31 -11 -33 -28 -2 -12 0 -23
5 -23 31 -6 335 -4 344 2 22 13 5 44 -28 49 -18 3 -42 13 -53 22 -19 17 -20
30 -20 212 l0 195 37 30 c45 38 72 39 111 6 75 -63 163 5 132 100 -20 61 -94
78 -170 40 -14 -7 -43 -35 -65 -61 l-40 -48 -5 65 c-6 77 -11 79 -99 38z"/>
<path d="M3013 3186 c-75 -30 -103 -46 -103 -58 0 -10 6 -18 14 -18 7 0 25 -9
40 -21 l26 -20 0 -218 c0 -198 -2 -219 -18 -234 -10 -10 -26 -17 -35 -17 -9 0
-21 -9 -27 -20 -16 -30 13 -37 162 -39 148 -2 178 3 178 30 0 20 -5 23 -52 33
-39 9 -48 53 -48 242 0 217 1 221 64 250 66 31 123 31 167 1 58 -39 64 -61 67
-267 2 -206 -1 -217 -60 -229 -23 -5 -34 -13 -36 -28 -3 -18 3 -22 35 -27 56
-8 288 -5 303 4 21 13 6 43 -26 52 -48 12 -54 38 -54 241 -1 200 -9 255 -46
304 -62 81 -197 104 -304 51 -31 -15 -65 -36 -77 -48 -12 -11 -24 -20 -27 -20
-3 0 -6 21 -8 47 -2 34 -7 48 -18 49 -8 1 -61 -17 -117 -40z"/>
<path d="M2442 3205 c-101 -31 -191 -135 -218 -252 -31 -129 2 -250 92 -339
63 -64 121 -87 219 -87 72 -1 86 2 143 33 55 29 142 109 142 130 0 4 -7 13
-15 20 -11 9 -21 7 -48 -14 -73 -56 -169 -71 -236 -36 -80 40 -131 127 -131
223 l0 45 207 -4 c118 -1 212 1 219 6 17 15 -1 114 -29 163 -32 54 -73 92
-119 111 -46 20 -166 20 -226 1z m171 -66 c29 -22 51 -81 45 -119 -3 -25 -3
-25 -135 -28 -149 -3 -146 -4 -117 67 16 41 59 86 90 94 46 12 92 6 117 -14z"/>
<path d="M4000 3206 c-54 -15 -113 -51 -158 -98 -128 -135 -117 -365 24 -499
90 -84 221 -108 329 -60 56 25 155 116 155 143 0 29 -20 31 -55 3 -121 -91
-269 -62 -336 67 -18 36 -41 146 -32 161 2 4 100 7 218 7 237 0 230 -2 214 69
-23 103 -93 189 -170 211 -45 13 -134 11 -189 -4z m127 -52 c41 -8 73 -59 73
-117 l0 -47 -135 0 c-153 0 -152 -1 -114 77 35 72 96 103 176 87z"/>
<path d="M5105 2970 c-3 -5 1 -10 10 -10 9 0 13 5 10 10 -3 6 -8 10 -10 10 -2
0 -7 -4 -10 -10z"/>
<path d="M1111 2134 c-45 -19 -60 -41 -61 -86 0 -45 28 -75 85 -89 55 -14 77
-33 73 -60 -5 -40 -51 -48 -104 -19 -42 22 -46 22 -62 6 -16 -15 -15 -18 13
-41 85 -68 215 -31 215 61 0 43 -32 76 -93 99 -62 22 -80 40 -67 66 13 23 72
26 90 4 17 -20 37 -19 49 4 13 23 -11 47 -60 61 -41 12 -37 12 -78 -6z"/>
<path d="M2284 2136 c-83 -36 -85 -134 -4 -165 16 -6 44 -16 60 -22 60 -23 62
-74 3 -85 -27 -5 -41 -2 -65 16 -23 17 -35 20 -47 13 -41 -26 11 -73 86 -80
73 -6 133 40 133 102 0 23 -48 72 -77 80 -51 12 -93 37 -93 54 0 40 56 55 97
26 19 -14 23 -13 38 1 15 15 15 18 -1 35 -9 10 -33 23 -53 29 -44 12 -39 12
-77 -4z"/>
<path d="M3957 2139 c-84 -20 -127 -75 -127 -161 0 -61 23 -105 73 -142 40
-30 144 -30 183 0 84 62 101 164 42 245 -18 25 -103 71 -125 68 -4 -1 -25 -5
-46 -10z m85 -60 c31 -14 55 -49 63 -90 8 -45 -23 -95 -72 -115 -31 -13 -41
-14 -72 -2 -38 15 -81 68 -81 100 0 81 91 140 162 107z"/>
<path d="M1376 2131 c-3 -4 -5 -76 -4 -160 l1 -151 28 0 c27 0 28 2 31 53 l3
52 52 3 c126 7 169 142 63 197 -31 16 -165 21 -174 6z m152 -57 c50 -35 9 -99
-60 -92 -30 3 -33 6 -36 42 -2 21 -1 44 2 52 7 19 66 18 94 -2z"/>
<path d="M1777 2133 c-3 -4 -30 -73 -61 -152 -31 -80 -59 -148 -62 -153 -3 -4
10 -8 29 -8 30 0 35 4 43 33 10 32 10 32 80 35 l70 3 12 -36 c11 -29 18 -35
43 -35 16 0 29 3 29 8 -1 4 -27 75 -58 157 -56 146 -59 150 -89 153 -17 2 -33
-1 -36 -5z m57 -130 c22 -63 22 -63 -24 -63 -29 0 -40 4 -40 15 0 22 31 95 40
95 5 0 15 -21 24 -47z"/>
<path d="M2532 2113 c3 -26 6 -28 46 -25 l42 4 0 -136 0 -136 30 0 29 0 3 133
3 132 48 3 c42 3 47 5 47 28 l0 24 -126 0 -125 0 3 -27z"/>
<path d="M2871 2011 c4 -112 7 -132 24 -151 42 -47 117 -62 180 -36 54 23 65
57 65 196 l0 121 -27 -3 -28 -3 -5 -122 c-3 -80 -9 -127 -18 -135 -19 -19 -89
-16 -109 5 -15 14 -19 39 -21 137 l-4 120 -30 0 -30 0 3 -129z"/>
<path d="M3260 1980 l0 -160 88 0 c69 0 94 4 120 20 103 63 96 233 -11 284
-24 11 -62 16 -116 16 l-81 0 0 -160z m192 73 c23 -22 28 -35 28 -74 0 -71
-29 -101 -103 -107 l-57 -4 0 104 c0 58 3 108 8 112 15 16 96 -4 124 -31z"/>
<path d="M3660 2136 c0 -3 -1 -75 -1 -158 l0 -153 30 -3 30 -3 -2 158 -2 158
-27 3 c-16 2 -28 1 -28 -2z"/>
<path d="M5188 1993 c7 -3 16 -2 19 1 4 3 -2 6 -13 5 -11 0 -14 -3 -6 -6z"/>
<path d="M5170 1360 c0 -5 5 -10 10 -10 6 0 10 5 10 10 0 6 -4 10 -10 10 -5 0
-10 -4 -10 -10z"/>
<path d="M5181 1321 c-8 -5 -9 -11 -3 -15 5 -3 12 1 16 9 6 17 6 18 -13 6z"/>
<path d="M5090 600 c0 -5 5 -10 10 -10 6 0 10 5 10 10 0 6 -4 10 -10 10 -5 0
-10 -4 -10 -10z"/>
<path d="M5090 539 c0 -5 5 -7 10 -4 6 3 10 8 10 11 0 2 -4 4 -10 4 -5 0 -10
-5 -10 -11z"/>
<path d="M215 450 c-19 -8 -19 -9 3 -9 12 -1 22 4 22 9 0 6 -1 10 -2 9 -2 0
-12 -4 -23 -9z"/>
<path d="M0 441 c0 -7 34 -11 92 -11 50 0 89 2 87 4 -11 10 -179 16 -179 7z"/>
<path d="M5100 360 c0 -5 5 -10 10 -10 6 0 10 5 10 10 0 6 -4 10 -10 10 -5 0
-10 -4 -10 -10z"/>
</g>
</svg>
